<svg xmlns="http://www.w3.org/2000/svg" xmlns:xlink="http://www.w3.org/1999/xlink" version="1.1" width="256" height="256" viewBox="0 0 256 256" xml:space="preserve">

<defs>
</defs>
<g style="stroke: none; stroke-width: 0; stroke-dasharray: none; stroke-linecap: butt; stroke-linejoin: miter; stroke-miterlimit: 10; fill: none; fill-rule: nonzero; opacity: 1;" transform="translate(1.4065934065934016 1.4065934065934016) scale(2.81 2.81)" >
	<path d="M 43.481 0.75 C 23.832 0.75 7.136 13.347 1 30.902 C 11.173 19.749 25.821 12.75 42.106 12.75 c 0.462 0 0.916 0.031 1.375 0.042 V 0.75 z" style="stroke: none; stroke-width: 1; stroke-dasharray: none; stroke-linecap: butt; stroke-linejoin: miter; stroke-miterlimit: 10; fill: rgb(113,194,255); fill-rule: nonzero; opacity: 1;" transform=" matrix(1 0 0 1 0 0) " stroke-linecap="round" />
	<path d="M 46.519 89.433 c 19.648 0 36.345 -12.597 42.481 -30.152 C 78.827 70.433 64.179 77.433 47.894 77.433 c -0.462 0 -0.916 -0.031 -1.375 -0.042 V 89.433 z" style="stroke: none; stroke-width: 1; stroke-dasharray: none; stroke-linecap: butt; stroke-linejoin: miter; stroke-miterlimit: 10; fill: rgb(113,194,255); fill-rule: nonzero; opacity: 1;" transform=" matrix(1 0 0 1 0 0) " stroke-linecap="round" />
	<path d="M 1 46.519 C 1 66.168 13.597 82.864 31.152 89 C 19.999 78.827 13 64.179 13 47.894 c 0 -0.462 0.031 -0.916 0.042 -1.375 H 1 z" style="stroke: none; stroke-width: 1; stroke-dasharray: none; stroke-linecap: butt; stroke-linejoin: miter; stroke-miterlimit: 10; fill: rgb(113,194,255); fill-rule: nonzero; opacity: 1;" transform=" matrix(1 0 0 1 0 0) " stroke-linecap="round" />
	<path d="M 89 43.481 C 89 23.832 76.403 7.136 58.848 1 C 70.001 11.173 77 25.821 77 42.106 c 0 0.462 -0.031 0.916 -0.042 1.375 H 89 z" style="stroke: none; stroke-width: 1; stroke-dasharray: none; stroke-linecap: butt; stroke-linejoin: miter; stroke-miterlimit: 10; fill: rgb(113,194,255); fill-rule: nonzero; opacity: 1;" transform=" matrix(1 0 0 1 0 0) " stroke-linecap="round" />
	<path d="M 85.376 33.403 c -3.216 -3.391 -7.561 -5.259 -12.232 -5.259 c -3.04 0 -6.02 0.822 -8.618 2.377 c -2.377 1.423 -4.858 2.453 -7.393 3.069 c -0.233 -0.249 -0.476 -0.49 -0.724 -0.724 c 0.616 -2.532 1.646 -5.014 3.069 -7.394 c 1.556 -2.6 2.378 -5.58 2.378 -8.618 c 0 -4.671 -1.867 -9.015 -5.258 -12.231 c -3.389 -3.214 -7.829 -4.847 -12.512 -4.6 c -8.28 0.438 -15.102 6.985 -15.868 15.229 c -0.342 3.675 0.487 7.264 2.398 10.378 c 1.413 2.303 2.428 4.717 3.024 7.191 c -0.266 0.248 -0.524 0.504 -0.772 0.768 c -2.534 -0.616 -5.016 -1.646 -7.394 -3.07 c -2.599 -1.555 -5.579 -2.377 -8.618 -2.377 c -4.671 0 -9.016 1.867 -12.231 5.258 c -3.214 3.389 -4.848 7.832 -4.6 12.512 c 0.438 8.28 6.985 15.101 15.229 15.868 c 3.674 0.348 7.263 -0.486 10.378 -2.397 c 2.304 -1.414 4.718 -2.429 7.191 -3.024 c 0.263 0.281 0.536 0.555 0.817 0.817 c -0.596 2.474 -1.611 4.889 -3.024 7.191 c -1.911 3.114 -2.74 6.703 -2.398 10.379 c 0.766 8.243 7.588 14.79 15.868 15.229 C 44.396 89.992 44.705 90 45.013 90 c 4.336 0 8.42 -1.623 11.584 -4.624 c 3.392 -3.216 5.259 -7.561 5.259 -12.232 c 0 -3.038 -0.822 -6.019 -2.378 -8.618 c -1.424 -2.378 -2.453 -4.859 -3.069 -7.394 c 0.264 -0.248 0.521 -0.506 0.769 -0.772 c 2.473 0.596 4.887 1.61 7.19 3.024 c 3.115 1.91 6.695 2.741 10.379 2.397 c 8.243 -0.767 14.79 -7.588 15.229 -15.868 C 90.224 41.234 88.59 36.792 85.376 33.403 z" style="stroke: none; stroke-width: 1; stroke-dasharray: none; stroke-linecap: butt; stroke-linejoin: miter; stroke-miterlimit: 10; fill: rgb(0,134,255); fill-rule: nonzero; opacity: 1;" transform=" matrix(1 0 0 1 0 0) " stroke-linecap="round" />
	<circle cx="44.995" cy="44.995" r="8.585" style="stroke: none; stroke-width: 1; stroke-dasharray: none; stroke-linecap: butt; stroke-linejoin: miter; stroke-miterlimit: 10; fill: rgb(113,194,255); fill-rule: nonzero; opacity: 1;" transform="  matrix(1 0 0 1 0 0) "/>
</g>
</svg>