<svg xmlns="http://www.w3.org/2000/svg" viewBox="0 0 352 512"><!--!Font Awesome Free 6.5.2 by @fontawesome - https://fontawesome.com License - https://fontawesome.com/license/free Copyright 2024 Fonticons, Inc.--><path d="M176 80c-52.9 0-96 43.1-96 96 0 8.8 7.2 16 16 16s16-7.2 16-16c0-35.3 28.7-64 64-64 8.8 0 16-7.2 16-16s-7.2-16-16-16zM96.1 459.2c0 3.2 .9 6.2 2.7 8.8l24.5 36.8c3 4.5 8 7.1 13.3 7.1h78.9c5.4 0 10.4-2.7 13.3-7.1l24.5-36.8c1.7-2.6 2.7-5.7 2.7-8.8l.1-43.2H96l0 43.2zM176 0C73.7 0 0 83 0 176c0 44.4 16.5 84.9 43.6 115.8 16.6 19 42.7 58.8 52.4 92.2v.1h48v-.1c0-4.8-.7-9.5-2.2-14.1-5.6-17.8-22.8-64.8-62.2-109.7-20.5-23.4-31.5-53.2-31.6-84.1-.2-73.6 59.7-128 128-128 70.6 0 128 57.4 128 128 0 31-11.2 60.9-31.7 84.1-39.1 44.6-56.4 91.5-62.1 109.5a47.5 47.5 0 0 0 -2.2 14.3v.1h48v-.1c9.7-33.4 35.8-73.2 52.4-92.2C335.6 260.9 352 220.4 352 176 352 78.8 273.2 0 176 0z"/></svg>